<svg xmlns="http://www.w3.org/2000/svg" xmlns:xlink="http://www.w3.org/1999/xlink" xmlns:fi="http://pattern.flaticon.com/" x="0" y="0" width="700" height="350" viewBox="0 0 700 350"><rect x="0px" y="0px" width="100%" height="100%" opacity="1" fill="#414141"/><defs><g transform="matrix(0.1697916491523753 0.04549553527192747 -0.04549553527192747 0.1697916491523753 -31.988136698407736 293.2618710731617)" id="L1_142"><path d="m363.355 33.032c-6.796 0-13.114 2.065-18.374 5.591-4.517-12.858-16.789-22.107-31.174-22.107-9.918 0-18.713 4.476-24.774 11.413-6.061-6.937-14.856-11.413-24.774-11.413s-18.713 4.476-24.774 11.413c-6.061-6.937-14.856-11.413-24.774-11.413-9.34 0-17.747 3.931-23.758 10.182-9.259-15.929-26.477-26.698-46.197-26.698-16.07 0-29.143 13.023-29.143 29.035 0 3.691.694 7.317 2.073 10.785 9.579 23.957 14.443 49.177 14.443 74.975v124.689c0 21.355 7.663 41.992 21.116 58.178-11.916 1.784-21.116 11.991-21.116 24.403v165.161c0 13.659 11.115 24.774 24.774 24.774h198.194c13.659 0 24.774-11.115 24.774-24.774v-165.161c0-12.412-9.199-22.619-21.116-24.403 13.452-16.186 21.116-36.823 21.116-58.178v-78.914c9.827-5.731 16.516-16.268 16.516-28.441v-66.064c0-18.218-14.815-33.033-33.032-33.033zm-49.549 0c9.109 0 16.516 7.407 16.516 16.516v66.065c0 9.109-7.407 16.516-16.516 16.516s-16.516-7.407-16.516-16.516v-66.065c0-9.108 7.408-16.516 16.516-16.516zm-49.548 0c9.109 0 16.516 7.407 16.516 16.516v66.065c0 9.109-7.407 16.516-16.516 16.516s-16.516-7.407-16.516-16.516v-66.065c0-9.108 7.407-16.516 16.516-16.516zm-66.064 16.516c0-9.109 7.407-16.516 16.516-16.516s16.516 7.407 16.516 16.516v66.065c0 9.109-7.407 16.516-16.516 16.516s-16.516-7.407-16.516-16.516zm165.161 335.162-77.741 77.741h-136.969v-37.871l77.741-77.741h136.968v37.871zm0 23.354v54.388h-54.388zm-214.71-6.838v-54.388h54.388zm206.452 94.258h-198.194c-4.558 0-8.258-3.708-8.258-8.258v-8.258h214.71v8.258c0 4.55-3.7 8.258-8.258 8.258zm8.258-173.419v8.258h-214.71v-8.258c0-4.55 3.7-8.258 8.258-8.258h198.194c4.558-.001 8.258 3.707 8.258 8.258zm0-82.581c0 22.412-10.389 43.776-27.78 57.806h-159.15c-17.391-14.03-27.78-35.394-27.78-57.806v-124.689c0-27.904-5.26-55.197-15.624-81.102-.595-1.503-.892-3.072-.892-4.666 0-6.895 5.673-12.511 12.627-12.511 20.356 0 36.922 16.566 36.922 36.93v78.683c0 7.754 3.7 15.162 9.91 19.819 14.476 10.859 23.123 28.152 23.123 46.245h16.516c0-18.391-6.937-36.121-19.035-49.647.834.066 1.668.099 2.519.099 9.918 0 18.713-4.476 24.774-11.413 6.061 6.937 14.856 11.413 24.774 11.413s18.713-4.476 24.774-11.413c6.061 6.937 14.856 11.413 24.774 11.413 6.796 0 13.114-2.065 18.374-5.591 4.517 12.858 16.789 22.107 31.174 22.107zm16.516-107.355c0 9.109-7.408 16.516-16.516 16.516s-16.516-7.407-16.516-16.516v-16.516-49.548c0-9.109 7.408-16.516 16.516-16.516s16.516 7.407 16.516 16.516z"/><path d="m264.258 264.258h16.516c0-27.326 22.222-49.548 49.548-49.548v-16.516c-36.426 0-66.064 29.638-66.064 66.064z"/></g><g transform="matrix(0.13671661913394928 0 0 0.13671661913394928 315 140)" id="L1_143"><path d="m247.719 265.113h16.57v66.278h-16.57z"/><path d="m189.726 248.544c-13.703 0-24.854 11.151-24.854 24.854s11.151 24.854 24.854 24.854 24.854-11.151 24.854-24.854-11.151-24.854-24.854-24.854zm0 33.139c-4.565 0-8.285-3.712-8.285-8.285s3.72-8.285 8.285-8.285 8.285 3.712 8.285 8.285-3.72 8.285-8.285 8.285z"/><path d="m322.282 298.252c13.703 0 24.854-11.151 24.854-24.854s-11.151-24.854-24.854-24.854-24.854 11.151-24.854 24.854 11.143 24.854 24.854 24.854zm0-33.139c4.565 0 8.285 3.712 8.285 8.285s-3.72 8.285-8.285 8.285-8.285-3.712-8.285-8.285 3.712-8.285 8.285-8.285z"/><path d="m256.004 397.67c23.603 0 44.821-13.115 55.367-34.216l1.748-3.496-14.813-7.423-1.756 3.504c-7.73 15.459-23.264 25.061-40.546 25.061s-32.816-9.602-40.554-25.061l-1.748-3.496-14.821 7.415 1.748 3.496c10.554 21.101 31.772 34.216 55.375 34.216z"/><path d="m429.985 218.304v-46.643l51.904-17.299-2.618-7.862c-5.244-15.741-15.145-29.709-28.168-39.908l15.451-15.459-5.857-5.857c-9.859-9.859-21.69-17.779-34.539-23.164l19.304-28.972h-15.484c-21.789 0-43.114 3.877-63.445 11.532l7.862-39.311-12.701 3.173c-17.787 4.449-35.21 10.439-51.97 17.862l6.593-26.396h-10.613c-17.729 0-34.912 5.153-49.709 14.904-14.787-9.751-31.97-14.904-49.7-14.904h-10.613l6.595 26.404c-16.752-7.423-34.175-13.413-51.97-17.862l-12.701-3.182 7.862 39.311c-20.331-7.655-41.656-11.532-63.445-11.532h-15.484l19.312 28.964c-12.858 5.393-24.68 13.305-34.539 23.173l-5.857 5.857 15.459 15.459c-13.024 10.199-22.924 24.167-28.168 39.908l-2.626 7.871 51.904 17.299v46.643c-19.279 6.843-33.139 25.211-33.139 46.809 0 27.414 22.294 49.709 49.709 49.709h16.57v31.499c0 50.471 34.282 94.587 82.483 107.537-1.79 15.741-10.041 30.331-22.825 39.916l-6.628 4.971 9.933 13.256 6.628-4.971c18.674-14.001 29.825-36.304 29.825-59.651v-6.785l-6.661-1.334c-44.15-8.832-76.187-47.919-76.187-92.939v-114.356h248.544v114.347c0 45.02-32.046 84.099-76.187 92.939l-6.661 1.334v6.785c0 23.347 11.151 45.649 29.834 59.65l6.628 4.971 9.933-13.256-6.62-4.971c-12.783-9.586-21.043-24.175-22.833-39.916 48.201-12.949 82.483-57.074 82.483-107.537v-31.499h16.57c27.414 0 49.709-22.294 49.709-49.709-.008-21.597-13.877-39.965-33.147-46.808zm-354.705-101.671 11.458-7.647-17.589-17.588c8.691-7.216 18.732-12.825 29.428-16.387l12.924-4.308-13.488-20.215c15.36 1.5 30.389 5.153 44.837 10.936l24.854 9.942-8.649-43.271c16.942 5.029 33.454 11.557 49.228 19.444l18.707 9.362-9.884-39.535c10.737 1.574 20.994 5.509 30.132 11.599l8.774 5.849 8.774-5.849c9.138-6.089 19.395-10.025 30.132-11.599l-9.884 39.534 18.699-9.362c15.774-7.887 32.286-14.407 49.228-19.444l-8.649 43.271 24.854-9.942c14.449-5.783 29.469-9.445 44.837-10.936l-13.488 20.223 12.924 4.308c10.704 3.562 20.737 9.163 29.428 16.387l-17.589 17.589 11.458 7.647c10.223 6.81 18.45 16.371 23.711 27.414l-40.09 13.355h-104.868l9.097-54.588-55.094 22.038 6.156 15.385 27.754-11.102-4.706 28.268h-85.383l-4.714-28.259 27.754 11.102 6.156-15.385-55.094-22.038 9.097 54.58h-104.87l-40.074-13.363c5.262-11.044 13.48-20.605 23.712-27.415zm23.313 57.348h314.822v41.424h-314.822zm16.57 86.012-21.151-10.571-7.415 14.822 28.558 14.283v19.726h-16.57c-18.276 0-33.139-14.863-33.139-33.139s14.863-33.139 33.139-33.139h16.57v28.019h.008zm298.252 38.259h-16.57v-19.734l28.558-14.283-7.415-14.821-21.151 10.571v-28.011h16.57c18.276 0 33.139 14.863 33.139 33.139s-14.863 33.139-33.131 33.139z"/><path d="m256.004 84.803 9.155 18.318 14.821-7.407-23.976-47.96-23.984 47.96 14.821 7.407z"/><path d="m139.769 138.837-4.938-19.751 19.742 4.937 4.019-16.072-46.536-11.632 11.632 46.527z"/><path d="m377.169 119.086-4.938 19.751 16.081 4.009 11.632-46.527-46.536 11.632 4.019 16.072z"/></g><g transform="matrix(0.13206017156295854 -0.03538541632261026 0.03538541632261026 0.13206017156295854 132.1339295012944 150.25126265847084)" id="L1_144"><path d="m305.548 0c-85.372 0-161.908 52.893-192.504 132.129h-96.528c-9.109 0-16.516 7.408-16.516 16.516v214.71c0 9.109 7.407 16.516 16.516 16.516h49.548v115.613c0 9.109 7.407 16.516 16.516 16.516h16.516c9.109 0 16.516-7.408 16.516-16.516v-115.613h49.548c6.631 0 12.313-3.947 14.947-9.588 35.906 27.516 79.839 42.62 125.44 42.62 113.839 0 206.453-92.614 206.453-206.451s-92.614-206.452-206.452-206.452zm189.738 214.388c-2.692.116-5.384.322-8.06.322-49.4 0-94.447-18.969-128.264-49.994l86.528-86.528c31.026 33.817 49.994 78.865 49.994 128.264 0 2.659-.091 5.301-.198 7.936zm-61.473-147.878-86.528 86.528c-31.026-33.817-49.994-78.865-49.994-128.264 0-2.634.206-5.293.314-7.944 2.651-.107 5.277-.314 7.944-.314 49.399 0 94.447 18.969 128.264 49.994zm-268.652 296.845h-66.064v132.129h-16.516v-132.129h-66.065v-214.71h148.645zm-34.353-231.226c26.393-62.043 83.91-105.233 150.222-113.887-.066 2.18-.256 4.36-.256 6.532 0 53.958 20.827 103.118 54.834 139.941l-71.68 71.68c-22.924-21.182-50.894-37.203-82.259-46.328v-41.422c0-9.109-7.407-16.516-16.516-16.516zm50.869 75.173c26.756 8.522 50.688 22.561 70.557 40.795l-70.557 70.549zm0 142.972v-8.275l82.25-82.25c31.257 34.147 49.879 79.5 49.879 128.38 0 2.676-.206 5.368-.322 8.06-2.634.107-5.277.198-7.936.198-45.617 0-89.418-16.425-123.871-46.113zm148.381 44.478c.074-2.213.264-4.426.264-6.623 0-53.38-20.447-102.879-54.726-140.049l71.688-71.688c36.823 34.007 85.983 54.834 139.941 54.834 2.197 0 4.41-.19 6.623-.264-11.024 85.157-78.633 152.765-163.79 163.79z"/><path d="m132.129 313.806h-33.032v-143.805l-38.871 38.87 11.677 11.677 10.678-10.678v103.936h-33.033v16.517h82.581z"/></g><g transform="matrix(0.078125 0 0 0.078125 155 330)" id="L1_145"><path d="m198.194 313.806h16.516v16.516h-16.516z"/><path d="m165.161 313.806h16.516v16.516h-16.516z"/><path d="m371.613 231.226c-5.88 0-11.644.479-17.334 1.189l-7.779-62.191-13.296-17.73 46.666-101.128v-1.817c.001-27.327-22.222-49.549-49.547-49.549-13.337 0-25.327 7.407-31.29 19.34l-17.581 35.171c-5.029-3.089-10.876-4.963-17.193-4.963-9.918 0-18.713 4.476-24.774 11.413-6.061-6.937-14.856-11.413-24.774-11.413s-18.713 4.476-24.774 11.413c-6.061-6.937-14.856-11.413-24.774-11.413s-18.713 4.476-24.774 11.413c-6.061-6.937-14.856-11.413-24.774-11.413-6.317 0-12.164 1.875-17.193 4.963l-17.584-35.171c-5.962-11.933-17.953-19.34-31.29-19.34-27.326 0-49.548 22.222-49.548 49.548v1.817l46.666 101.12-13.295 17.73-32.826 262.59c-.363 2.899-.545 5.822-.545 8.745 0 38.846 31.604 70.45 70.45 70.45h238.972c8.927 0 17.565-1.726 25.773-4.963 11.636 3.138 23.8 4.963 36.418 4.963 77.411 0 140.387-62.976 140.387-140.387s-62.976-140.387-140.387-140.387zm123.45 132.129h-115.192v-16.896c36.451-3.361 67.452-28.722 78.352-63.249 21.108 20.687 34.767 48.838 36.84 80.145zm-196.088 108.379c6.631-31.166 32.884-54.759 64.38-58.318v81.647c-23.965-1.586-46.047-9.984-64.38-23.329zm80.896-58.311c31.496 3.559 57.749 27.152 64.38 58.318-18.333 13.337-40.415 21.735-64.38 23.329zm-16.516-16.656c-36.451 3.361-67.452 28.722-78.353 63.249-21.108-20.686-34.766-48.846-36.847-80.145h115.2zm-115.192-33.412c2.081-31.306 15.732-59.458 36.847-80.145 10.901 34.527 41.893 59.887 78.352 63.249v16.896zm131.708-115.192c23.965 1.594 46.047 9.992 64.38 23.329-6.631 31.166-32.884 54.759-64.38 58.318zm-16.516 81.639c-31.496-3.559-57.749-27.152-64.38-58.318 18.333-13.337 40.415-21.735 64.38-23.329zm-148.645-181.157v-33.032h70.194l37.161 49.548h-90.839c0-9.108-7.408-16.516-16.516-16.516zm-49.549 49.549v-33.032h49.548l.008 33.032zm-16.516-33.033h-90.839l37.161-49.548h70.194v33.032c-9.108 0-16.516 7.408-16.516 16.516zm41.29-66.064c4.558 0 8.258 3.708 8.258 8.258v41.29h-16.516v-41.29c0-4.55 3.7-8.258 8.258-8.258zm124.54 28.416 13.675-25.063c6.144-11.264 14.146-21.174 23.585-29.514l-29.787 64.537zm-.669-100.79c3.146-6.293 9.472-10.207 16.516-10.207 16.623 0 30.274 12.395 32.553 28.408-20.786 11.594-37.764 28.598-49.235 49.606l-10.067 18.457-6.284-8.382v-22.024c0-5.483-1.47-10.579-3.84-15.137zm-49.548 39.342c9.109 0 16.516 7.407 16.516 16.516v16.516h-33.032v-16.516c0-9.109 7.407-16.516 16.516-16.516zm-49.548 0c9.109 0 16.516 7.407 16.516 16.516v16.516h-18.036c-2.494-6.995-8.002-12.503-14.997-14.997v-1.519c.001-9.109 7.408-16.516 16.517-16.516zm-49.549 0c9.109 0 16.516 7.407 16.516 16.516v1.519c-6.995 2.494-12.503 8.002-14.997 14.997h-18.036v-16.516c.001-9.109 7.409-16.516 16.517-16.516zm-49.548 0c9.109 0 16.516 7.407 16.516 16.516v16.516h-33.032v-16.516c0-9.109 7.407-16.516 16.516-16.516zm-66.065-49.549c7.044 0 13.37 3.914 16.516 10.207l20.356 40.721c-2.37 4.558-3.84 9.654-3.84 15.137v22.024l-6.284 8.382-10.066-18.457c-11.47-21.009-28.449-38.012-49.235-49.606 2.279-16.013 15.93-28.408 32.553-28.408zm-21.405 56.411c9.439 8.349 17.441 18.25 23.585 29.514l13.675 25.063-7.465 9.959zm8.506 204.214 138.281 218.343h-38.26l-106.33-167.895zm-20.133 164.409c0-2.23.14-4.468.421-6.689l10.182-81.491 90.005 142.113h-46.674c-29.738.001-53.934-24.195-53.934-53.933zm177.961 53.934-154.607-244.117 8.704-69.69h100.071v16.516c0 9.109 7.407 16.516 16.516 16.516v33.032h16.516v-33.031h16.516v82.581h16.516v-82.581c9.109 0 16.516-7.407 16.516-16.516v-16.516h100.071l6.722 53.785c-61.217 15.112-106.793 70.342-106.793 136.151 0 53.587 30.208 100.22 74.463 123.871h-111.211zm263.746-35.469c-10.901-34.527-41.893-59.887-78.352-63.249v-16.896h115.192c-2.073 31.307-15.732 59.459-36.84 80.145z"/></g><g transform="matrix(0.078125 0 0 0.078125 242.5 67.5)" id="L1_146"><path d="m156.903 231.226c13.337 0 25.327-7.407 31.29-19.34l.867-1.742-14.774-7.391-.867 1.751c-3.146 6.293-9.472 10.207-16.516 10.207s-13.37-3.914-16.516-10.207l-.867-1.742-14.774 7.391.867 1.742c5.963 11.923 17.953 19.331 31.29 19.331z"/><path d="m168.853 182.545-9.365-4.674c3.724-9.266 5.673-19.258 5.673-29.225h-16.516c0 9.522-2.246 19.068-6.516 27.598l-4.567 9.125 23.907 11.949z"/><circle cx="123" cy="156" r="8"/><circle cx="189" cy="156" r="8"/><path d="m338.581 297.29c-18.3 0-35.534 4.625-50.622 12.734-12.362-11.677-28.127-19.349-45.056-21.768l-44.709-6.392v-10.983c26.228-7.201 45.378-29.341 48.904-56.18h8.902c22.767 0 41.29-18.523 41.29-41.29 0-13.436-6.549-25.278-16.516-32.818v-33.239c0-59.193-48.161-107.354-107.355-107.354h-59.227c-15.88 0-31.455 6.012-43.231 16.59-39.432 1.768-70.961 34.395-70.961 74.249v41.29c0 12.907 7.391 24.105 18.432 29.531-1.131 3.757-1.916 7.647-1.916 11.759 0 22.767 18.523 41.29 41.29 41.29h8.902c3.534 26.839 22.677 48.979 48.904 56.18v10.983l-44.709 6.392c-40.422 5.764-70.903 40.902-70.903 81.747v84.183c0 31.867 25.939 57.806 57.806 57.806h198.194c11.206 0 20.587-7.523 23.635-17.747 17.416 11.471 37.822 17.747 58.946 17.747 59.194 0 107.355-48.161 107.355-107.355s-48.162-107.355-107.355-107.355zm58.087 37.591-40.299 40.299c-14.386-16.747-23.692-37.88-25.575-60.978 2.568-.223 5.161-.396 7.787-.396 22.073 0 42.322 7.936 58.087 21.075zm-75.9 75.9c-19.076-16.731-43.206-27.755-69.665-30.274 8.481-30.695 32.652-54.867 63.348-63.348 2.519 26.467 13.535 50.589 30.274 69.665zm-45.073 45.072c-4.154-5.492-10.496-9.142-17.747-9.72-6.582-12.775-10.207-26.979-10.207-41.489 0-2.626.173-5.219.396-7.787 23.106 1.883 44.238 11.19 60.978 25.575zm-27.953-108.155v-41.596c9.505 2.461 18.333 7.011 25.848 13.304-10.216 7.803-18.977 17.374-25.848 28.292zm8.258-149.504h-8.258v-12.098l21.099-14.063-9.158-13.741-11.941 7.961v-17.606h8.258c13.659 0 24.774 11.115 24.774 24.774 0 13.657-11.115 24.773-24.774 24.773zm-239.484-66.065v-41.29c0-31.868 25.939-57.806 57.806-57.806h3.419l2.42-2.42c8.96-8.96 21.364-14.097 34.031-14.097h59.227c50.085 0 90.839 40.754 90.839 90.839v25.608c-2.667-.545-5.434-.834-8.258-.834h-8.258v-17.937c0-17.02-6.904-33.676-18.936-45.708l-11.677 11.677c8.96 8.96 14.097 21.364 14.097 34.031v1.42h-33.115c-.462-23.402-16.401-43.602-39.201-49.3l-4.005 16.021c15.434 3.857 26.236 17.466 26.69 33.28h-24.692c-22.767 0-41.29-18.523-41.29-41.29h-16.516c0 8.968 2.114 17.441 5.781 25.022-18.804 1.14-34.304 14.757-37.979 32.785h-9.092c-2.824 0-5.591.289-8.258.834v-18.771c0-12.668 5.137-25.071 14.097-34.031l-11.678-11.678c-12.032 12.032-18.936 28.697-18.936 45.708v26.401c-2.519 1.908-4.773 4.104-6.796 6.532-5.797-2.601-9.72-8.34-9.72-14.996zm16.516 41.29c0-13.659 11.115-24.774 24.774-24.774h8.258v17.606l-11.933-7.961-9.158 13.741 21.091 14.063v12.098h-8.258c-13.658.002-24.774-11.114-24.774-24.773zm49.549 32.347v-65.379c0-13.659 11.115-24.774 24.774-24.774h9.175c10.43 10.199 24.675 16.516 40.374 16.516h74.323v73.637c0 25.055-17.937 46.229-42.645 50.349l-6.904 1.148v31.769c0 13.659-11.115 24.774-24.774 24.774s-24.774-11.115-24.774-24.774v-31.769l-6.904-1.156c-24.709-4.112-42.645-25.286-42.645-50.341zm0 97.511 34.197-4.881c4.269 18.25 20.587 31.926 40.126 31.926s35.857-13.675 40.126-31.934l34.197 4.889v101.368c0 8.795 1.181 17.499 3.287 25.955-2.098-.751-4.352-1.181-6.706-1.181-5.252 0-10.389 2.131-14.097 5.838l-10.24 10.24-120.89-15.112zm181.677 183.949c0 4.558-3.7 8.258-8.258 8.258h-198.194c-22.767 0-41.29-18.523-41.29-41.29v-84.183c0-30.2 20.843-56.518 49.548-63.959v128.206l-14.097 14.097 11.677 11.677 13.659-13.659 132.129 16.516 15.955-15.955c1.957-1.965 5.838-.372 5.838 2.42v13.097h24.775c4.558 0 8.258 3.7 8.258 8.258zm16.516-12.627v-.471l40.019-40.019c14.386 16.747 23.692 37.88 25.575 60.978-2.568.223-5.161.396-7.787.396-21.199.001-41.555-7.44-57.807-20.884zm81.945 17.532c-2.519-26.467-13.535-50.589-30.274-69.665l23.948-23.948c19.076 16.731 43.206 27.755 69.665 30.274-8.481 30.678-32.652 54.85-63.339 63.339zm66.304-79.698c-23.106-1.883-44.238-11.19-60.978-25.575l40.299-40.299c13.139 15.765 21.075 36.013 21.075 58.087 0 2.625-.173 5.218-.396 7.787z"/><path d="m317.077 95.62 62.794 55.816 62.794-55.816c12.577-11.173 19.786-27.243 19.786-44.073 0-14.146-5.508-27.442-15.517-37.45-8.959-8.96-21.363-14.097-34.031-14.097-12.205 0-24.163 4.765-33.032 13.122-8.869-8.357-20.827-13.122-33.032-13.122-12.668 0-25.071 5.137-34.031 14.097-10.009 10.009-15.517 23.304-15.517 37.45-.001 16.83 7.209 32.9 19.786 44.073zm7.407-69.847c5.888-5.888 14.03-9.257 22.355-9.257 8.324 0 16.467 3.369 22.355 9.257l10.678 10.678 10.678-10.678c5.888-5.888 14.03-9.257 22.355-9.257 8.324 0 16.467 3.369 22.355 9.257 6.887 6.887 10.678 16.037 10.678 25.773 0 12.123-5.194 23.684-14.245 31.736l-51.819 46.055-51.819-46.055c-9.051-8.052-14.245-19.613-14.245-31.736-.004-9.735 3.787-18.885 10.674-25.773z"/><path d="m338.581 203.388c-4.443-3.328-9.926-5.194-15.517-5.194-14.212 0-25.773 11.561-25.773 25.773 0 6.788 2.75 13.428 7.548 18.226l33.742 33.742 33.742-33.742c4.798-4.798 7.548-11.437 7.548-18.226 0-14.212-11.561-25.773-25.773-25.773-5.591 0-11.075 1.866-15.517 5.194zm24.774 20.579c0 2.436-.983 4.823-2.709 6.549l-22.066 22.066-22.066-22.066c-1.726-1.726-2.709-4.113-2.709-6.549 0-5.103 4.154-9.257 9.257-9.257 2.436 0 4.823.983 6.549 2.709l8.968 8.968 8.968-8.968c1.726-1.726 4.113-2.709 6.549-2.709 5.105 0 9.259 4.153 9.259 9.257z"/><path d="m501.826 159.827c-7.209-7.218-16.797-11.181-26.987-11.181s-19.778 3.964-26.987 11.181l-1.916 1.916-1.916-1.916c-7.209-7.218-16.797-11.181-26.987-11.181s-19.778 3.964-26.987 11.181c-6.466 6.466-10.174 15.426-10.174 24.568 0 11.107 4.319 21.537 12.181 29.399l53.884 53.884 53.884-53.884c7.86-7.854 12.179-18.293 12.179-29.408 0-9.282-3.609-18.003-10.174-24.559zm-13.684 42.289-42.207 42.207-42.207-42.207c-4.74-4.74-7.341-11.025-7.341-17.722 0-4.798 1.941-9.497 5.335-12.899 4.096-4.088 9.53-6.334 15.31-6.334 5.781 0 11.214 2.246 15.31 6.342l13.593 13.593 13.593-13.593c8.176-8.175 22.437-8.175 30.613 0 3.452 3.444 5.343 8.019 5.343 12.891 0 6.698-2.601 12.982-7.342 17.722z"/></g><path d="m512 264.258h-115.613v-16.516c0-9.109-7.407-16.516-16.516-16.516v-82.581c9.109 0 16.516-7.407 16.516-16.516v-115.613c0-9.109-7.407-16.516-16.516-16.516h-247.742c-9.109 0-16.516 7.407-16.516 16.516v115.613c0 9.109 7.407 16.516 16.516 16.516v82.581c-9.109 0-16.516 7.407-16.516 16.516v16.516h-115.613v16.516h16.723c4.376 128.231 109.997 231.226 239.277 231.226s234.901-102.995 239.277-231.226h16.723zm-181.677 0v-16.516h49.548v16.516zm-17.177 148.645c-4.03-27.962-28.086-49.548-57.146-49.548s-53.116 21.587-57.146 49.548h-33.693v-132.129h181.677v132.129zm-97.602 0c3.84-18.82 20.513-33.032 40.456-33.032s36.616 14.212 40.456 33.032zm80.912 16.516c-3.84 18.82-20.513 33.032-40.456 33.032s-36.616-14.212-40.456-33.032zm-114.779-198.193v-82.581h33.032v49.548h16.516v-16.516h16.516v16.516h16.516v-16.516h16.516v16.516h16.516v-49.548h33.032v82.581c-9.109 0-16.516 7.407-16.516 16.516v16.516h-115.611v-16.516c0-9.109-7.408-16.516-16.517-16.516zm99.097-66.065h-16.516v-16.516h16.516zm-49.548-16.516h16.516v16.516h-16.516zm33.032-16.516v-16.516h24.865c-2.899 5.178-5.062 10.744-6.466 16.516zm-66.064-33.032v-16.516h115.613l.016 16.516zm49.548 16.516v16.516h-18.407c-1.404-5.772-3.567-11.338-6.466-16.516zm115.613 115.613h-16.516v-82.581h16.516zm-231.226-214.71h247.742l.016 115.613h-80.095c2.007-6.053 5.203-11.685 9.406-16.516h4.608c9.109 0 16.516-7.407 16.516-16.516v-16.516c0-9.109-7.407-16.516-16.516-16.516h-115.612c-9.109 0-16.516 7.407-16.516 16.516v16.516c0 9.109 7.407 16.516 16.516 16.516h4.608c4.203 4.831 7.399 10.463 9.406 16.516h-80.078v-115.613zm16.516 132.129h16.516v82.581h-16.516zm-16.516 99.097h49.548v16.516h-49.548zm123.871 247.742c-120.171 0-218.393-95.579-222.761-214.71h115.406v148.645h50.209c4.03 27.962 28.086 49.548 57.146 49.548s53.116-21.587 57.146-49.548h50.209v-148.645h115.406c-4.368 119.131-102.59 214.71-222.761 214.71z" transform="matrix(0.0390625 0 0 0.0390625 77.5 340)" id="L1_147"/><g transform="matrix(0.078125 0 0 0.078125 67.5 67.5)" id="L1_148"><path d="m478.968 105.026v-55.478c0-9.109-7.407-16.516-16.516-16.516h-99.931c-3.84-18.82-20.522-33.032-40.456-33.032-17.837 0-35.345 6.136-49.276 17.284l-3.774 3.022c-3.799-2.362-8.225-3.79-13.015-3.79s-9.216 1.429-13.015 3.782l-3.774-3.022c-13.931-11.14-31.438-17.276-49.276-17.276-19.935 0-36.616 14.212-40.456 33.032h-99.931c-9.109 0-16.516 7.407-16.516 16.516v55.478c-21.57 33.272-33.032 71.713-33.032 111.418v279.04c0 9.108 7.407 16.516 16.516 16.516h198.194c9.109 0 16.516-7.408 16.516-16.516v-173.419c0-13.659 11.115-24.774 24.774-24.774s24.774 11.115 24.774 24.774v173.419c0 9.109 7.408 16.516 16.516 16.516h198.194c9.109 0 16.516-7.408 16.516-16.516v-279.032c0-39.713-11.462-78.154-33.032-111.426zm-12.866 10.587c19.167 30.216 29.382 64.958 29.382 100.839v14.286c-37.103-4.121-66.065-35.642-66.065-73.835v-41.29zm-103.581-66.065h99.931v49.548h-165.542c-.71-7.771-2.461-15.36-5.087-22.627 9.546 3.964 19.828 6.111 30.241 6.111 19.935.001 36.617-14.211 40.457-33.032zm-40.456-33.032c13.659 0 24.774 11.115 24.774 24.774s-11.115 24.774-24.774 24.774c-14.105 0-27.945-4.856-38.962-13.667l-3.79-3.031c.884-2.552 1.462-5.236 1.462-8.076s-.578-5.525-1.462-8.076l3.79-3.031c11.016-8.811 24.857-13.667 38.962-13.667zm-66.065 16.516c4.55 0 8.258 3.7 8.258 8.258s-3.708 8.258-8.258 8.258-8.258-3.7-8.258-8.258 3.708-8.258 8.258-8.258zm-66.065-16.516c14.105 0 27.945 4.856 38.962 13.667l3.79 3.031c-.884 2.552-1.462 5.236-1.462 8.076s.578 5.525 1.462 8.068l-3.79 3.031c-11.016 8.82-24.857 13.675-38.962 13.675-13.659 0-24.774-11.115-24.774-24.774s11.116-24.774 24.774-24.774zm-140.387 33.032h99.931c3.84 18.82 20.513 33.032 40.456 33.032 10.413 0 20.695-2.147 30.233-6.111-2.626 7.267-4.377 14.856-5.087 22.627h-165.533zm-3.65 66.065h36.682v41.29c0 38.194-28.961 69.715-66.065 73.835v-14.286c.001-35.881 10.216-70.623 29.383-100.839zm20.167 297.29v-16.516h33.032v16.516zm-16.517 0h-33.032v-16.516h33.032zm165.162 16.516v16.516h-198.194v-16.516zm-99.097-16.516v-16.516h99.097v16.516zm-99.097-33.032v-16.516h198.194v16.516zm0 115.613v-33.032h198.194v33.032zm280.774 0v-173.419c0-13.436-6.549-25.278-16.516-32.818v-74.537h-16.516v66.899c-2.667-.545-5.434-.834-8.258-.834s-5.591.289-8.258.834v-66.899h-16.516v74.537c-9.967 7.548-16.516 19.39-16.516 32.818v24.774h-198.194v-99.518c46.229-4.187 82.581-43.115 82.581-90.418v-41.29h115.613v33.032h16.516v-41.29c0-15.798 5.029-31.067 14.245-43.726 3.212 1.519 6.755 2.436 10.529 2.436s7.317-.917 10.529-2.436c9.216 12.66 14.245 27.929 14.245 43.726v41.29h16.516v-33.032h115.613v41.29c0 47.302 36.352 86.231 82.581 90.418v248.163z"/><path d="m396.387 330.323c-36.426 0-66.065 29.638-66.065 66.065s29.638 66.065 66.065 66.065 66.065-29.638 66.065-66.065-29.639-66.065-66.065-66.065zm9.208 45.179c-5.772-8.101-9.208-17.978-9.208-28.664 10.686 0 20.563 3.435 28.664 9.208zm-25.584-25.823c.603 14.138 5.64 27.12 13.799 37.607l-6.532 6.532c-10.488-8.159-23.469-13.196-37.607-13.799 4.98-14.162 16.186-25.368 30.34-30.34zm16.376 96.256c-10.686 0-20.563-3.435-28.664-9.208l19.456-19.456c5.773 8.102 9.208 17.979 9.208 28.664zm-20.885-40.34-19.456 19.456c-5.772-8.101-9.208-17.978-9.208-28.664 10.687 0 20.563 3.435 28.664 9.208zm37.261 37.5c-.603-14.138-5.64-27.12-13.799-37.607l6.532-6.532c10.488 8.159 23.469 13.196 37.607 13.799-4.98 14.162-16.186 25.368-30.34 30.34zm4.509-55.916 19.456-19.456c5.772 8.101 9.208 17.978 9.208 28.664-10.686 0-20.563-3.435-28.664-9.208z"/></g><g transform="matrix(0.17578125 0 0 0.17578125 217.5 217.5)" id="L1_149"><path d="m265.073 220.402-37.961 37.961 11.404 11.404 10.427-10.428v53.114h-16.129v16.13h48.388v-16.13h-16.129z"/><path d="m506.169 494.338c-20.549-41.09-31.412-87.091-31.412-133.045v-32.711h-21.985c13.444-11.831 21.985-29.114 21.985-48.389 0-35.574-28.944-64.518-64.518-64.518-23.936 0-44.832 13.138-55.961 32.549-3.532-19.13-6.468-38.396-8.597-57.631l-.798-7.178h-47.55v-16.13c0-8.895-7.234-16.13-16.13-16.13h-16.13v-32.904c12.113-1.742 23.001-7.307 31.364-15.484h8.96c31.122 0 56.453-25.331 56.453-56.453 0-13.339-10.855-24.194-24.194-24.194h-24.194c0-8.895-7.234-16.13-16.13-16.13h-80.648c-8.895 0-16.13 7.234-16.13 16.13h-24.194c-13.339 0-24.194 10.855-24.194 24.194 0 31.122 25.331 56.453 56.453 56.453h8.96c8.363 8.178 19.251 13.742 31.364 15.484v32.904h-16.13c-8.895 0-16.13 7.234-16.13 16.13v16.13h-47.542l-.806 7.178c-3.065 27.606-7.662 55.252-13.565 82.486-11.807-15.259-30.243-25.146-50.994-25.146-35.574 0-64.518 28.944-64.518 64.518 0 19.275 8.541 36.558 21.985 48.389h-21.984v30.557c0 36.453-10.686 71.744-30.904 102.068l-8.355 12.543h512zm-168.513-456.087c4.452 0 8.065 3.613 8.065 8.065 0 21.315-16.686 38.646-37.654 40.058 3.428-7.282 5.395-15.371 5.395-23.928v-24.195zm-169.36 8.065c0-4.452 3.613-8.065 8.065-8.065h24.194v24.194c0 8.557 1.968 16.646 5.395 23.928-20.968-1.411-37.654-18.742-37.654-40.057zm48.388 16.13v-40.324h80.648v40.324c0 22.235-18.089 40.324-40.324 40.324s-40.324-18.09-40.324-40.324zm145.166 217.748c10.436 0 20.081 3.355 27.993 8.992l-19.001 19.001c-5.637-7.911-8.992-17.557-8.992-27.993zm20.396 39.397 19.001-19.001c5.637 7.912 8.992 17.557 8.992 27.993-10.436 0-20.082-3.355-27.993-8.992zm43.985 6.218c-.589-13.807-5.508-26.485-13.476-36.727l6.379-6.379c10.242 7.968 22.92 12.887 36.727 13.476-4.863 13.831-15.807 24.775-29.63 29.63zm-15.992-94.003c10.436 0 20.081 3.355 27.993 8.992l-19.001 19.001c-5.637-7.912-8.992-17.557-8.992-27.993zm20.395 39.396 19.001-19.001c5.637 7.912 8.992 17.557 8.992 27.993-10.435 0-20.081-3.355-27.993-8.992zm-36.38-36.622c.589 13.807 5.508 26.485 13.476 36.727l-6.379 6.379c-10.242-7.968-22.92-12.888-36.727-13.476 4.855-13.831 15.807-24.775 29.63-29.63zm-161.44-67.292h48.389v16.13h-48.389zm-113.044 190.78c-.589-13.807-5.508-26.485-13.476-36.727l6.379-6.379c10.242 7.968 22.92 12.888 36.727 13.476-4.863 13.831-15.807 24.775-29.63 29.63zm-15.993-94.003c10.436 0 20.081 3.355 27.993 8.992l-19.001 19.001c-5.637-7.912-8.992-17.557-8.992-27.993zm39.397 20.396c5.637 7.912 8.992 17.557 8.992 27.993-10.436 0-20.081-3.355-27.993-8.992zm-55.381-17.622c.589 13.807 5.508 26.485 13.476 36.727l-6.379 6.379c-10.242-7.968-22.92-12.887-36.727-13.476 4.855-13.831 15.807-24.775 29.63-29.63zm-4.411 54.607-19.001 19.001c-5.637-7.912-8.992-17.557-8.992-27.993 10.436-.001 20.081 3.354 27.993 8.992zm-7.597 30.404 19.001-19.001c5.637 7.912 8.992 17.557 8.992 27.993-10.436 0-20.082-3.355-27.993-8.992zm-46.292 138.028c16.976-30.009 25.896-63.76 25.896-98.479v-14.428h96.777v14.428c0 34.719 8.912 68.47 25.896 98.479zm167.376 0c-18.702-29.501-28.573-63.454-28.573-98.479v-30.557h-21.985c13.444-11.831 21.985-29.114 21.985-48.389 0-5.686-.815-11.17-2.202-16.428 7.686-31.686 13.557-64.099 17.444-96.479h146.924c3.637 30.315 9.008 60.671 15.968 90.358l.089-.024c2.323 15.339 10.033 28.896 21.178 38.703h-21.985v32.711c0 44.3-10.089 88.64-29.227 128.585zm137.408 0c18.065-40.267 27.573-84.454 27.573-128.585v-16.581h96.777v16.581c0 44.138 9.508 88.317 27.573 128.585z"/><path d="m79.583 409.231h32.259v16.129h-32.259v16.13h32.259v16.129h-32.259v16.13h48.389v-80.648h-48.389z"/><path d="m386.044 376.972h32.259v16.129h-32.259v48.389h48.389v-16.13h-32.259v-16.129h32.259v-48.389h-48.389z"/></g><path d="m478.968 235.355h-.595c-2.007-9.381-9.348-17.069-18.985-19.126l-63.001-13.502v-8.663c18.217 0 33.032-14.815 33.032-33.032s-14.815-33.032-33.032-33.032h-.595c-2.007-9.381-9.348-17.061-18.985-19.134l-101.541-21.752-28.226-14.113c-3.667-1.842-7.771-2.808-11.875-2.808-10.76 0-20.381 6.417-24.51 16.343l-35.237 84.563-138.19 52.645c-22.264 8.473-37.228 30.183-37.228 54.016v31.917c0 13.659 11.115 24.774 24.774 24.774h87.94c-18.275 10.025-30.134 29.473-30.134 50.663v31.917c0 13.659 11.115 24.774 24.774 24.774h346.839c13.659 0 24.774-11.115 24.774-24.774v-115.612c18.217 0 33.032-14.815 33.032-33.032s-14.814-33.032-33.031-33.032zm-20.877 123.871c-24.138 0-45.882 12.594-58.145 33.032h-30.497c20.472-30.852 54.792-49.548 92.54-49.548h.462v16.516zm4.361 16.516v16.516h-42.174c9.579-10.413 23.139-16.516 37.822-16.516zm-.463-49.548c-46.964 0-89.294 25.212-111.798 66.065h-152.196c-.818-24.312-12.651-46.699-31.579-61.242l24.023-9.15 26.69 26.69 11.677-11.677-21.454-21.454 18.969-7.226 23.841 23.841 11.677-11.677-18.605-18.605 18.969-7.226 20.992 20.992 11.677-11.677-12.676-12.676c13.94-2.857 26.839-8.886 37.706-17.714l13.874 9.91 9.596-13.436-11.603-8.291c4.418-5.269 8.398-11 11.578-17.358l1.354-2.709 117.752 25.228v59.392zm-133.409-89.295c-2.783 5.574-6.26 10.62-10.215 15.162l-24.254-17.325 14.377-34.494c1.552-3.749 5.194-6.177 9.257-6.177 1.553 0 3.097.363 4.484 1.057l21.785 10.892zm-40.985 13.477 18.234 13.023c-8.498 6.028-18.242 10.24-28.713 12.106zm174.857-9.926v9.464l-110.122-23.593 7.292-14.584 96.306 20.637c3.774.809 6.524 4.203 6.524 8.076zm-49.549-79.418c0 9.109-7.407 16.516-16.516 16.516v-33.032c9.109 0 16.516 7.408 16.516 16.516zm-33.032-27.937v9.464l-110.121-23.602 7.292-14.575 96.297 20.629c3.782.817 6.532 4.211 6.532 8.084zm-153.972-40.208c1.561-3.757 5.203-6.177 9.266-6.177 1.553 0 3.097.363 4.484 1.057l21.785 10.892-15.443 30.877c-2.808 5.624-6.317 10.702-10.314 15.277l-24.204-17.292zm-20.942 50.275 18.159 12.973c-8.465 5.979-18.159 10.157-28.573 12.024zm-25.336 44.007 20.992 20.992 11.677-11.677-12.676-12.676c13.882-2.849 26.731-8.844 37.574-17.614l14.658 10.471 9.596-13.444-12.346-8.82c4.459-5.302 8.465-11.074 11.669-17.474l1.354-2.7 117.752 25.228v39.738l-22.024-4.715-28.226-14.113c-3.667-1.85-7.771-2.816-11.875-2.816-10.76 0-20.381 6.417-24.51 16.343l-35.237 84.563-16.937 6.45h-125.647c-.818-24.303-12.651-46.699-31.579-61.242l24.023-9.15 26.682 26.682 11.677-11.677-21.454-21.454 18.969-7.226 23.841 23.841 11.676-11.679-18.605-18.605zm-136.514 52.009 21.669-8.258c20.108 10.612 33.164 31.224 34.131 53.983h-82.391v-7.143c0-17.028 10.686-32.529 26.591-38.582zm-26.591 70.499v-8.258h181.198l-43.355 16.516h-129.585c-4.55 0-8.258-3.699-8.258-8.258zm109.172 36.856 21.661-8.258c20.108 10.612 33.164 31.224 34.131 53.983h-82.383v-7.143c0-17.028 10.686-32.529 26.591-38.582zm328.506 78.757h-346.839c-4.55 0-8.258-3.7-8.258-8.258v-8.258h363.355v8.258c0 4.559-3.708 8.258-8.258 8.258zm24.774-140.387v-33.032c9.109 0 16.516 7.407 16.516 16.516s-7.408 16.516-16.516 16.516z" transform="matrix(0.09765625 0 0 0.09765625 62.5 237.5)" id="L1_150"/><g transform="matrix(0.0390625 0 0 0.0390625 252.5 340)" id="L1_151"><path d="m231.226 264.258h33.032v16.516h-33.032v16.516h49.548v-49.548h-33.032v-16.516h33.032v-16.516h-49.548z"/><path d="m459.636 200.242c-40.192-35.171-63.249-85.975-63.249-139.38v-60.862h-280.774v60.862c0 53.413-23.057 104.209-63.249 139.38l-2.816 2.461v309.297h412.903v-309.298zm-136.292-167.21h-134.689c-2.345-5.236-4.187-10.752-5.459-16.516h145.598c-1.263 5.764-3.104 11.281-5.45 16.516zm-9.785 16.516c-13.535 17.846-33.916 30.101-57.559 32.975-23.643-2.874-44.024-15.129-57.559-32.974h115.118zm-181.43 11.314v-44.346h34.221c8.093 44.032 43.594 77.51 88.741 82.531l.909.099.908-.107c45.147-5.013 80.656-38.491 88.741-82.523h34.221v44.346c0 30.761 7.077 60.705 20.174 87.783h-288.089c13.097-27.078 20.174-57.022 20.174-87.783zm-29.134 104.299h306.011c9.992 16.541 22.355 31.744 36.93 44.99v42.43l-49.548 49.548v15.302l-280.775 171.587v-36.154l200.522-122.541h47.22v-148.646h-214.71v148.645h135.804l-168.836 103.185v-131.377l-49.548-49.548v-42.43c14.575-13.247 26.937-28.45 36.93-44.991zm293.392 207.781-200.522 122.542h-59.161l259.683-158.695zm0 19.357v103.185h-168.836zm-231.226-78.493v-115.612h181.677v115.613h-181.677zm-99.096-37.871 33.032 33.032v186.517h-33.032zm346.838 219.549v-186.517l33.032-33.032v219.549z"/></g></defs><g fi:class="KUsePattern"><pattern id="pattern_L1_142" width="350" height="350" patternUnits="userSpaceOnUse"><use xlink:href="#L1_142" x="-350" y="-350"/><use xlink:href="#L1_142" x="0" y="-350"/><use xlink:href="#L1_142" x="350" y="-350"/><use xlink:href="#L1_142" x="-350" y="0"/><use xlink:href="#L1_142" x="0" y="0"/><use xlink:href="#L1_142" x="350" y="0"/><use xlink:href="#L1_142" x="-350" y="350"/><use xlink:href="#L1_142" x="0" y="350"/><use xlink:href="#L1_142" x="350" y="350"/></pattern><rect x="0" y="0" width="100%" height="100%" fill="url(#pattern_L1_142)"/></g><g fi:class="KUsePattern"><pattern id="pattern_L1_143" width="350" height="350" patternUnits="userSpaceOnUse"><use xlink:href="#L1_143" x="-350" y="-350"/><use xlink:href="#L1_143" x="0" y="-350"/><use xlink:href="#L1_143" x="350" y="-350"/><use xlink:href="#L1_143" x="-350" y="0"/><use xlink:href="#L1_143" x="0" y="0"/><use xlink:href="#L1_143" x="350" y="0"/><use xlink:href="#L1_143" x="-350" y="350"/><use xlink:href="#L1_143" x="0" y="350"/><use xlink:href="#L1_143" x="350" y="350"/></pattern><rect x="0" y="0" width="100%" height="100%" fill="url(#pattern_L1_143)"/></g><g fi:class="KUsePattern"><pattern id="pattern_L1_144" width="350" height="350" patternUnits="userSpaceOnUse"><use xlink:href="#L1_144" x="-350" y="-350"/><use xlink:href="#L1_144" x="0" y="-350"/><use xlink:href="#L1_144" x="350" y="-350"/><use xlink:href="#L1_144" x="-350" y="0"/><use xlink:href="#L1_144" x="0" y="0"/><use xlink:href="#L1_144" x="350" y="0"/><use xlink:href="#L1_144" x="-350" y="350"/><use xlink:href="#L1_144" x="0" y="350"/><use xlink:href="#L1_144" x="350" y="350"/></pattern><rect x="0" y="0" width="100%" height="100%" fill="url(#pattern_L1_144)"/></g><g fi:class="KUsePattern"><pattern id="pattern_L1_145" width="350" height="350" patternUnits="userSpaceOnUse"><use xlink:href="#L1_145" x="-350" y="-350"/><use xlink:href="#L1_145" x="0" y="-350"/><use xlink:href="#L1_145" x="350" y="-350"/><use xlink:href="#L1_145" x="-350" y="0"/><use xlink:href="#L1_145" x="0" y="0"/><use xlink:href="#L1_145" x="350" y="0"/><use xlink:href="#L1_145" x="-350" y="350"/><use xlink:href="#L1_145" x="0" y="350"/><use xlink:href="#L1_145" x="350" y="350"/></pattern><rect x="0" y="0" width="100%" height="100%" fill="url(#pattern_L1_145)"/></g><g fi:class="KUsePattern"><pattern id="pattern_L1_146" width="350" height="350" patternUnits="userSpaceOnUse"><use xlink:href="#L1_146" x="-350" y="-350"/><use xlink:href="#L1_146" x="0" y="-350"/><use xlink:href="#L1_146" x="350" y="-350"/><use xlink:href="#L1_146" x="-350" y="0"/><use xlink:href="#L1_146" x="0" y="0"/><use xlink:href="#L1_146" x="350" y="0"/><use xlink:href="#L1_146" x="-350" y="350"/><use xlink:href="#L1_146" x="0" y="350"/><use xlink:href="#L1_146" x="350" y="350"/></pattern><rect x="0" y="0" width="100%" height="100%" fill="url(#pattern_L1_146)"/></g><g fi:class="KUsePattern"><pattern id="pattern_L1_147" width="350" height="350" patternUnits="userSpaceOnUse"><use xlink:href="#L1_147" x="-350" y="-350"/><use xlink:href="#L1_147" x="0" y="-350"/><use xlink:href="#L1_147" x="350" y="-350"/><use xlink:href="#L1_147" x="-350" y="0"/><use xlink:href="#L1_147" x="0" y="0"/><use xlink:href="#L1_147" x="350" y="0"/><use xlink:href="#L1_147" x="-350" y="350"/><use xlink:href="#L1_147" x="0" y="350"/><use xlink:href="#L1_147" x="350" y="350"/></pattern><rect x="0" y="0" width="100%" height="100%" fill="url(#pattern_L1_147)"/></g><g fi:class="KUsePattern"><pattern id="pattern_L1_148" width="350" height="350" patternUnits="userSpaceOnUse"><use xlink:href="#L1_148" x="-350" y="-350"/><use xlink:href="#L1_148" x="0" y="-350"/><use xlink:href="#L1_148" x="350" y="-350"/><use xlink:href="#L1_148" x="-350" y="0"/><use xlink:href="#L1_148" x="0" y="0"/><use xlink:href="#L1_148" x="350" y="0"/><use xlink:href="#L1_148" x="-350" y="350"/><use xlink:href="#L1_148" x="0" y="350"/><use xlink:href="#L1_148" x="350" y="350"/></pattern><rect x="0" y="0" width="100%" height="100%" fill="url(#pattern_L1_148)"/></g><g fi:class="KUsePattern"><pattern id="pattern_L1_149" width="350" height="350" patternUnits="userSpaceOnUse"><use xlink:href="#L1_149" x="-350" y="-350"/><use xlink:href="#L1_149" x="0" y="-350"/><use xlink:href="#L1_149" x="350" y="-350"/><use xlink:href="#L1_149" x="-350" y="0"/><use xlink:href="#L1_149" x="0" y="0"/><use xlink:href="#L1_149" x="350" y="0"/><use xlink:href="#L1_149" x="-350" y="350"/><use xlink:href="#L1_149" x="0" y="350"/><use xlink:href="#L1_149" x="350" y="350"/></pattern><rect x="0" y="0" width="100%" height="100%" fill="url(#pattern_L1_149)"/></g><g fi:class="KUsePattern"><pattern id="pattern_L1_150" width="350" height="350" patternUnits="userSpaceOnUse"><use xlink:href="#L1_150" x="-350" y="-350"/><use xlink:href="#L1_150" x="0" y="-350"/><use xlink:href="#L1_150" x="350" y="-350"/><use xlink:href="#L1_150" x="-350" y="0"/><use xlink:href="#L1_150" x="0" y="0"/><use xlink:href="#L1_150" x="350" y="0"/><use xlink:href="#L1_150" x="-350" y="350"/><use xlink:href="#L1_150" x="0" y="350"/><use xlink:href="#L1_150" x="350" y="350"/></pattern><rect x="0" y="0" width="100%" height="100%" fill="url(#pattern_L1_150)"/></g><g fi:class="KUsePattern"><pattern id="pattern_L1_151" width="350" height="350" patternUnits="userSpaceOnUse"><use xlink:href="#L1_151" x="-350" y="-350"/><use xlink:href="#L1_151" x="0" y="-350"/><use xlink:href="#L1_151" x="350" y="-350"/><use xlink:href="#L1_151" x="-350" y="0"/><use xlink:href="#L1_151" x="0" y="0"/><use xlink:href="#L1_151" x="350" y="0"/><use xlink:href="#L1_151" x="-350" y="350"/><use xlink:href="#L1_151" x="0" y="350"/><use xlink:href="#L1_151" x="350" y="350"/></pattern><rect x="0" y="0" width="100%" height="100%" fill="url(#pattern_L1_151)"/></g></svg>